<svg width="512" height="512" xmlns="http://www.w3.org/2000/svg">

 <g>
  <title>background</title>
  <rect fill="none" id="canvas_background" height="402" width="582" y="-1" x="-1"/>
 </g>
 <g>
  <title>Layer 1</title>
  <circle fill="#905aa1" id="svg_3" r="250" cy="256" cx="256" class="st0"/>
  <path fill="#7f4997" id="svg_4" d="m505.4,272.6c-0.3,-0.4 -0.6,-0.8 -1,-1.2c-33.6,-33.5 -67.1,-67.1 -100.7,-100.6c-0.5,-0.5 -1,-1 -1.5,-1.5c-1.8,-1.7 -3.8,-3 -6.2,-3.4c-2,-0.4 -4.1,-0.5 -6.2,-0.5c-67.8,0 -135.5,0 -203.3,0c-1.8,0 -3.1,-0.5 -4.4,-1.8c-9.1,-9.2 -18.3,-18.3 -27.5,-27.5c-1.8,-1.8 -3.8,-3.2 -6.1,-4.2c-6.2,-2.6 -12.3,-5.3 -18.5,-8c-4.3,-1.9 -8.6,-3.8 -13,-5.6c-5.4,-2.2 -10.8,1.6 -10.5,7.3c0.1,2.3 1.3,4 2.9,5.6c12.5,12.4 24.9,24.9 37.4,37.3c1,0.9 1.5,1.9 1.8,3.3c0.7,3.5 1.4,7 2.1,10.6c4.5,22.1 9.1,44.1 13.6,66.2c4.7,23 9.5,46 14.2,69c0.8,3.8 2.4,7 5.2,9.8c8.4,8.3 16.6,16.6 25,24.9c0.6,0.6 1.2,1.2 1.7,1.9c-2.7,4.2 -4.2,8.5 -4.5,13.2c-0.4,8.2 2.4,15.1 8.3,21c35.9,35.8 71.7,71.7 107.6,107.6c0.3,0.3 0.6,0.8 0.9,1.2c100.7,-28.1 175.7,-117.1 182.7,-224.6z" class="st1"/>
  <path fill="#ffffff" id="svg_6" d="m231.8,342c-14.5,0 -26.4,11.8 -26.4,26.4s11.8,26.4 26.4,26.4c14.5,0 26.4,-11.8 26.4,-26.4s-11.9,-26.4 -26.4,-26.4zm0,38.1c-6.4,0 -11.7,-5.2 -11.7,-11.7s5.2,-11.7 11.7,-11.7s11.7,5.2 11.7,11.7c-0.1,6.4 -5.3,11.7 -11.7,11.7z" class="st2"/>
  <path fill="#ffffff" id="svg_7" d="m324.3,342c-14.5,0 -26.4,11.8 -26.4,26.4s11.8,26.4 26.4,26.4s26.4,-11.8 26.4,-26.4c0,-14.5 -11.8,-26.4 -26.4,-26.4zm0,38.1c-6.4,0 -11.7,-5.2 -11.7,-11.7s5.2,-11.7 11.7,-11.7c6.4,0 11.7,5.2 11.7,11.7c0,6.4 -5.2,11.7 -11.7,11.7z" class="st2"/>
  <path fill="#ffffff" id="svg_8" d="m225.3,217.9l105.6,0c4.1,0 7.4,-3.3 7.4,-7.4c0,-4.1 -3.3,-7.4 -7.4,-7.4l-105.6,0c-4.1,0 -7.4,3.3 -7.4,7.4c0,4.1 3.3,7.4 7.4,7.4z" class="st2"/>
  <path fill="#ffffff" id="svg_9" d="m325.1,241.4l-94.1,0c-4.1,0 -7.4,3.3 -7.4,7.4c0,4.1 3.3,7.4 7.4,7.4l94.1,0c4.1,0 7.4,-3.3 7.4,-7.4c0,-4.1 -3.3,-7.4 -7.4,-7.4z" class="st2"/>
  <path fill="#ffffff" id="svg_10" d="m402.7,170.3c-2.8,-3.4 -7,-5.4 -11.4,-5.4l-229.5,0l-4.6,-22.5c-1,-4.7 -4.2,-8.6 -8.6,-10.5l-32.3,-14c-3.7,-1.6 -8.1,0.1 -9.7,3.8c-1.6,3.7 0.1,8.1 3.8,9.7l32.3,14l35.6,173c1.4,6.8 7.5,11.8 14.4,11.8l176.5,0c4.1,0 7.4,-3.3 7.4,-7.4c0,-4.1 -3.3,-7.4 -7.4,-7.4l-176.4,0l-4.3,-21l182.2,0c7,0 13,-4.9 14.4,-11.8l20.6,-100c0.9,-4.4 -0.2,-8.8 -3,-12.3zm-32,109.3l-185.2,0l-20.6,-100l226.4,0l-20.6,100z" class="st2"/>
 </g>
</svg>